# xmcd
#
# Track frame offsets: 
#        182
#        13077
#        26805
#        40092
#        52507
#        65680
#        79132
#        90780
#        105250
#        119062
#        131847
#        146217
#
# Disc length: 2117 seconds
#
# Revision: 4
# Processed by: cddbd v1.5.2PL0 Copyright (c) Steve Scherf et al.
# Submitted via: ExactAudioCopyFreeDBPlugin 1.0
#
DISCID=9b08430c
DTITLE=Tex Ritter - Tex Ritter Greatest Hits (CURB)
DYEAR=1990
DGENRE=Country
TTITLE0=I'm Wastin' My Tears On You
TTITLE1=There's A New Moon Over My Shoulder
TTITLE2=Jealous Heart
TTITLE3=You Two-Timed Me One Time Too Often
TTITLE4=You Will have To Pay
TTITLE5=When You Leave Don't Slam The Door
TTITLE6=Have I Told You Lately That I Loved You
TTITLE7=Rye Whiskey
TTITLE8=Deck Of Cards
TTITLE9=High Noon
TTITLE10=I Dreamed Of A Hill-Billy Heaven
TTITLE11=Jingle, Jangle, Jingle
EXTD=
EXTT0=
EXTT1=
EXTT2=
EXTT3=
EXTT4=
EXTT5=
EXTT6=
EXTT7=
EXTT8=
EXTT9=
EXTT10=
EXTT11=
PLAYORDER=
